<svg data-v-0dd9719b="" version="1.0" xmlns="http://www.w3.org/2000/svg" xmlns:xlink="http://www.w3.org/1999/xlink" width="100%" height="100%" viewBox="0 0 340.000000 250.000000" preserveAspectRatio="xMidYMid meet" color-interpolation-filters="sRGB" style="margin: auto;"> <rect data-v-0dd9719b="" x="0" y="0" width="100%" height="100%" fill="#ffffff" fill-opacity="1" class="background"></rect> <rect data-v-0dd9719b="" x="0" y="0" width="100%" height="100%" fill="url(#watermark)" fill-opacity="1" class="watermarklayer"></rect> <g data-v-0dd9719b="" fill="#2b2b2b" class="icon-text-wrapper icon-svg-group iconsvg" transform="translate(53.665000915527344,92.26784896850586)"><g class="iconsvg-imagesvg" transform="translate(0,0)"><g><rect fill="#2b2b2b" fill-opacity="0" stroke-width="2" x="0" y="0" width="59.99999999999963" height="65.46430558737808" class="image-rect"></rect> <svg x="0" y="0" width="59.99999999999963" height="65.46430558737808" filtersec="colorsb922419893" class="image-svg-svg primary" style="overflow: visible;"><svg xmlns="http://www.w3.org/2000/svg" viewBox="0 0.00037716084625571966 252.15200805664062 275.1169128417969"><g><g><path d="M55.31 105c61.62 14.49 123.56 4.79 139.05 40a229.17 229.17 0 0 1 52.9 14.48 51.7 51.7 0 0 0-21-66.75L77.53 6.91A51.66 51.66 0 0 0 46.75.24C13.07 19.73 29.94 56.83 55.31 105z" fill="#f74dd2"></path><path d="M55.31 105C29.94 56.83 13.07 19.73 46.75.24A51.72 51.72 0 0 0 0 51.71v21.93C11.08 90.43 31.64 99.47 55.31 105zM194.36 145c10.49 23.82-11 53.19-30.49 73.38l62.47-36.1a51.68 51.68 0 0 0 20.92-22.8 229.17 229.17 0 0 0-52.9-14.48z" fill="#ffde49"></path><path d="M194.36 145c-40.78-6.07-79.75-.78-113.69 9 17 34.93 37.81 79.58 1 111.82l82.18-47.49c19.53-20.15 41-49.52 30.51-73.33z" fill="#2b2b2b"></path><path d="M80.67 154A371.3 371.3 0 0 0 0 188.64v34.81a51.77 51.77 0 0 0 77.64 44.74l4-2.33c35.98-31.49 17.13-74.58-.97-111.86z" fill="#4fd9fe"></path><path d="M55.31 105C31.64 99.47 11.08 90.43 0 73.64v115A371.3 371.3 0 0 1 80.67 154c-8.42-17.28-17.32-33.68-25.36-49z" fill="#2b2b2b"></path></g></g></svg></svg> <!----></g></g> <g transform="translate(67,5.9409027099609375)"><g data-gra="path-name" fill-rule="" class="tp-name iconsvg-namesvg" transform="translate(0,0)"><g transform="scale(1)"><g><path d="M40.12-20.95Q40.12-20.7 39.93-20.51 39.74-20.32 39.48-20.32L39.48-20.32 23.93-20.32Q24.86-15.56 27.86-10.84 30.86-6.12 34.36-2.7 37.87 0.72 40.12 1.66L40.12 1.66 40.12 4.42Q37.74 3.83 34.11 1.49 30.47-0.85 26.92-4.53 23.38-8.2 21.25-12.5L21.25-12.5Q19.13-8.2 15.58-4.53 12.03-0.85 8.39 1.49 4.76 3.83 2.38 4.42L2.38 4.42 2.38 1.66Q4.63 0.72 8.14-2.7 11.65-6.12 14.64-10.84 17.64-15.56 18.57-20.32L18.57-20.32 2.42-20.32 2.42-23.08 18.91-23.08 18.91-23.84 18.91-33.87 23.59-33.87 23.59-23.84 23.59-23.08 40.12-23.08 40.12-20.95ZM67.58-0.89L67.58-6.89 55.16-6.89 55.16-9.65 67.58-9.65 67.58-15.39 56.52-15.39 56.52-18.15 57.42-18.15Q59.84-20.91 61.8-26.35L61.8-26.35 55.63-26.35 55.63-29.11 62.73-29.11Q63.5-31.71 64-34.21L64-34.21 69.11-34.21Q68.59-31.45 67.7-29.11L67.7-29.11 81.94-29.11 81.94-26.99Q81.94-26.73 81.75-26.54 81.56-26.35 81.3-26.35L81.3-26.35 66.56-26.35Q64.64-22.27 61.2-18.15L61.2-18.15 67.58-18.15 67.58-24.01 72.25-24.01 72.25-18.15 80.88-18.15 80.88-16.02Q80.88-15.77 80.69-15.58 80.5-15.39 80.24-15.39L80.24-15.39 72.25-15.39 72.25-9.65 82.83-9.65 82.83-7.52Q82.83-7.27 82.64-7.08 82.45-6.89 82.19-6.89L82.19-6.89 72.25-6.89 72.25-1.53Q72.25-1.28 72.06-1.08 71.87-0.89 71.61-0.89L71.61-0.89 67.58-0.89ZM55.04-23.89L51.55-23.89Q51.13-24.69 49.07-27.46 47.01-30.22 45.18-32.26L45.18-32.26 50.7-32.26Q51.72-30.9 52.68-29.01 53.64-27.12 54.66-24.74L54.66-24.74 55.04-23.89ZM61.97 0.13L83 0.13 82.15 2.89 61.45 2.89Q57.72 2.89 55.38 1.83 53.04 0.77 51.51-1.02L51.51-1.02Q51 0.04 49.68 1.21 48.37 2.38 46.9 3.19 45.43 4 44.45 4.04L44.45 4.04 44.45 1.28Q46.37 0.04 47.79-1.81 49.22-3.66 49.22-6.04L49.22-6.04 49.22-16.53 44.88-16.53 44.88-19.3 53.89-19.3 53.89-4.55Q53.98-2.47 55.95-1.17 57.93 0.13 61.97 0.13L61.97 0.13ZM96.39-26.95L92.78-26.95Q91.93-29.5 88.44-33.87L88.44-33.87 93.12-33.87Q94.27-32.13 94.88-30.79 95.5-29.45 95.88-28.39 96.26-27.33 96.39-26.95L96.39-26.95ZM100.51-31.49L125.33-31.49 125.33-29.37Q125.33-29.11 125.14-28.92 124.95-28.73 124.69-28.73L124.69-28.73 100.51-28.73 100.51-31.49ZM96.43-16.58Q98.09-14.11 100.05-12.2L100.05-12.2 100.05-9.44Q97.41-10.63 95.97-11.82L95.97-11.82 95.97 3.36Q95.97 3.61 95.77 3.8 95.58 4 95.33 4L95.33 4 91.29 4 91.29-10.29Q89.46-8.71 86.95-7.61L86.95-7.61 86.95-10.37Q89.84-12.62 91.97-17L91.97-17 93.03-19.42Q93.8-21.51 94.18-23.72L94.18-23.72 87.81-23.72 87.81-26.48 99.19-26.48 99.19-23.72Q98.22-19.85 96.43-16.58L96.43-16.58ZM119-16.75L102.3-16.75 102.3-25.84 123.46-25.84 123.46-21.21Q123.46-16.75 119-16.75L119-16.75ZM107.02-23.08L106.97-19.51 117.3-19.51Q118.79-19.51 118.79-21L118.79-21 118.79-23.08 107.02-23.08ZM124.69-13.81L124.69-0.85Q124.69 3.61 120.23 3.61L120.23 3.61 100.72 3.61 100.72-13.81 124.69-13.81ZM110.37-11.05L105.44-11.05 105.44-6.93 110.37-6.93 110.37-11.05ZM120.02-6.93L120.02-11.05 115.05-11.05 115.05-6.93 120.02-6.93ZM105.4-4.17L105.4 0.85 110.37 0.85 110.37-4.17 105.4-4.17ZM118.53 0.85Q120.02 0.85 120.02-0.64L120.02-0.64 120.02-4.17 115.05-4.17 115.05 0.85 118.53 0.85ZM157.21-18.96Q162.09-15.94 168.05-14.28L168.05-14.28 168.05-11.52Q159.97-12.84 153.47-16.58L153.47-16.58Q147.39-13.26 139.4-11.73L139.4-11.73 139.4-14.49Q145.82-16.15 150.15-18.74L150.15-18.74Q147.01-21.08 145.22-23.46L145.22-23.46Q142.8-21.38 139.87-20.32L139.87-20.32 139.87-23.08Q142.33-24.86 143.69-26.95 145.05-29.03 145.54-30.66 146.03-32.3 146.33-34.21L146.33-34.21 151.43-34.21Q151-32.09 150.24-30.35L150.24-30.35 165.16-30.35 165.16-27.58Q161.93-22.44 157.21-18.96L157.21-18.96ZM136.85-25.2Q136.3-26.31 134.45-28.79 132.6-31.28 130.56-33.23L130.56-33.23 135.66-33.23Q137.96-30.81 140.46-25.2L140.46-25.2 136.85-25.2ZM149.51-25.97Q151.17-23.63 153.94-21.38L153.94-21.38Q157.21-24.06 159.08-27.58L159.08-27.58 148.79-27.58Q148.24-26.69 147.65-25.97L147.65-25.97 149.51-25.97ZM129.46-23.55L134.56-23.55Q136.85-21.12 139.36-15.51L139.36-15.51 135.75-15.51Q135.19-16.62 133.34-19.1 131.5-21.59 129.46-23.55L129.46-23.55ZM135.11-11.6Q135.15-11.73 135.3-11.82 135.45-11.9 135.62-11.9L135.62-11.9 138.89-11.9 134.81 3.74 129.71 3.74 135.11-11.6ZM164.35-11.31L164.35-0.34Q164.35 4.12 159.88 4.12L159.88 4.12 142.25 4.12 142.25-11.31 164.35-11.31ZM158.19 1.36Q159.67 1.36 159.67-0.13L159.67-0.13 159.67-8.54 146.92-8.54 146.92 1.36 158.19 1.36Z" transform="translate(-2.380000114440918, 34.209999084472656)"></path></g> <!----> <!----> <!----> <!----> <!----> <!----> <!----></g></g> <g data-gra="path-slogan" fill-rule="" class="tp-slogan iconsvg-slogansvg" fill="#F74DD2" transform="translate(5,43.62999725341797)"><rect x="0" height="1" y="3.9750003814697266" width="32.040000915527344"></rect> <rect height="1" y="3.9750003814697266" width="32.040000915527344" x="123.62999725341797"></rect> <g transform="translate(35.040000915527344,0)"><g transform="scale(1)"><path d="M4.41 0L0.94 0L0.94-8.58L4.45-8.58Q7.92-8.39 8.06-4.41L8.06-4.41Q7.88-0.09 4.41 0L4.41 0ZM4.27-7.64L2.11-7.64L2.11-0.98L4.36-0.98Q6.80-1.13 6.89-4.31L6.89-4.31Q6.84-7.55 4.27-7.64L4.27-7.64ZM15.19 0L14.34-2.48L10.88-2.48L9.98 0L8.81 0L12.05-8.58L13.36-8.58L16.45 0L15.19 0ZM12.61-7.31L11.25-3.52L13.92-3.52L12.66-7.31L12.61-7.31ZM17.48-8.58L18.66-8.58L18.66-1.03L23.02-1.03L23.02 0L17.48 0L17.48-8.58ZM24.33-8.58L25.50-8.58L25.50 0L24.33 0L24.33-8.58ZM33.14 0L32.30-2.48L28.83-2.48L27.94 0L26.77 0L30-8.58L31.31-8.58L34.41 0L33.14 0ZM30.56-7.31L29.20-3.52L31.88-3.52L30.61-7.31L30.56-7.31ZM36.84-8.58L41.16-1.64L41.16-8.58L42.28-8.58L42.28 0L40.97 0L36.61-6.94L36.56-6.94L36.56 0L35.44 0L35.44-8.58L36.84-8.58ZM52.92-3.89L48.70-3.89L48.70 0L47.53 0L47.53-8.58L53.48-8.58L53.48-7.59L48.70-7.59L48.70-4.92L52.92-4.92L52.92-3.89ZM60.33-3.19L60.33-8.58L61.50-8.58L61.50-3.05Q61.36 0.05 57.98 0.14L57.98 0.14Q54.84 0.05 54.70-2.86L54.70-2.86L54.70-8.58L55.88-8.58L55.88-3.19Q55.92-0.84 58.03-0.80L58.03-0.80Q60.33-0.84 60.33-3.19L60.33-3.19ZM63.28-8.58L64.45-8.58L64.45-1.03L68.81-1.03L68.81 0L63.28 0L63.28-8.58ZM75.61-3.19L75.61-8.58L76.78-8.58L76.78-3.05Q76.64 0.05 73.27 0.14L73.27 0.14Q70.13 0.05 69.98-2.86L69.98-2.86L69.98-8.58L71.16-8.58L71.16-3.19Q71.20-0.84 73.31-0.80L73.31-0.80Q75.61-0.84 75.61-3.19L75.61-3.19ZM85.36-4.27L85.36-4.27Q85.17-7.64 82.36-7.83L82.36-7.83Q79.50-7.69 79.36-4.27L79.36-4.27Q79.50-0.94 82.36-0.80L82.36-0.80Q85.17-0.98 85.36-4.27ZM86.53-4.27L86.53-4.27Q86.25 0 82.36 0.14L82.36 0.14Q78.42 0 78.14-4.27L78.14-4.27Q78.38-8.72 82.36-8.81L82.36-8.81Q86.25-8.67 86.53-4.27Z" transform="translate(-0.9375, 8.8125)"></path></g></g></g></g></g><defs v-gra="od"></defs></svg>